<?xml version="1.0" encoding="UTF-8" standalone="no"?>
<!-- Created with Inkscape (http://www.inkscape.org/) -->

<svg
   xmlns:ns1="http://wanglongqi.github.io/WriteTeX"
   xmlns:dc="http://purl.org/dc/elements/1.1/"
   xmlns:cc="http://creativecommons.org/ns#"
   xmlns:rdf="http://www.w3.org/1999/02/22-rdf-syntax-ns#"
   xmlns:svg="http://www.w3.org/2000/svg"
   xmlns="http://www.w3.org/2000/svg"
   xmlns:sodipodi="http://sodipodi.sourceforge.net/DTD/sodipodi-0.dtd"
   xmlns:inkscape="http://www.inkscape.org/namespaces/inkscape"
   width="210mm"
   height="297mm"
   viewBox="0 0 210 297"
   version="1.1"
   id="svg8"
   inkscape:version="0.92.4 (5da689c313, 2019-01-14)"
   sodipodi:docname="notinjnotsurj.svg">
  <defs
     id="defs2">
    <marker
       inkscape:stockid="Arrow1Mend"
       orient="auto"
       refY="0.0"
       refX="0.0"
       id="Arrow1Mend"
       style="overflow:visible;"
       inkscape:isstock="true">
      <path
         id="path4537"
         d="M 0.0,0.0 L 5.0,-5.0 L -12.5,0.0 L 5.0,5.0 L 0.0,0.0 z "
         style="fill-rule:evenodd;stroke:#000000;stroke-width:1pt;stroke-opacity:1;fill:#000000;fill-opacity:1"
         transform="scale(0.4) rotate(180) translate(10,0)" />
    </marker>
    <marker
       inkscape:stockid="Arrow1Lend"
       orient="auto"
       refY="0.0"
       refX="0.0"
       id="Arrow1Lend"
       style="overflow:visible;"
       inkscape:isstock="true">
      <path
         id="path4531"
         d="M 0.0,0.0 L 5.0,-5.0 L -12.5,0.0 L 5.0,5.0 L 0.0,0.0 z "
         style="fill-rule:evenodd;stroke:#000000;stroke-width:1pt;stroke-opacity:1;fill:#000000;fill-opacity:1"
         transform="scale(0.8) rotate(180) translate(12.5,0)" />
    </marker>
    <marker
       inkscape:stockid="Arrow2Mend"
       orient="auto"
       refY="0.0"
       refX="0.0"
       id="Arrow2Mend"
       style="overflow:visible;"
       inkscape:isstock="true">
      <path
         id="path4555"
         style="fill-rule:evenodd;stroke-width:0.625;stroke-linejoin:round;stroke:#000000;stroke-opacity:1;fill:#000000;fill-opacity:1"
         d="M 8.7185878,4.0337352 L -2.2072895,0.016013256 L 8.7185884,-4.0017078 C 6.9730900,-1.6296469 6.9831476,1.6157441 8.7185878,4.0337352 z "
         transform="scale(0.6) rotate(180) translate(0,0)" />
    </marker>
    <marker
       inkscape:stockid="Arrow2Mend"
       orient="auto"
       refY="0"
       refX="0"
       id="Arrow2Mend-3"
       style="overflow:visible"
       inkscape:isstock="true">
      <path
         inkscape:connector-curvature="0"
         id="path4555-6"
         style="fill:#000000;fill-opacity:1;fill-rule:evenodd;stroke:#000000;stroke-width:0.625;stroke-linejoin:round;stroke-opacity:1"
         d="M 8.7185878,4.0337352 -2.2072895,0.01601326 8.7185884,-4.0017078 c -1.7454984,2.3720609 -1.7354408,5.6174519 -6e-7,8.035443 z"
         transform="scale(-0.6)" />
    </marker>
    <marker
       inkscape:stockid="Arrow2Mend"
       orient="auto"
       refY="0"
       refX="0"
       id="Arrow2Mend-3-7"
       style="overflow:visible"
       inkscape:isstock="true">
      <path
         inkscape:connector-curvature="0"
         id="path4555-6-0"
         style="fill:#000000;fill-opacity:1;fill-rule:evenodd;stroke:#000000;stroke-width:0.625;stroke-linejoin:round;stroke-opacity:1"
         d="M 8.7185878,4.0337352 -2.2072895,0.01601326 8.7185884,-4.0017078 c -1.7454984,2.3720609 -1.7354408,5.6174519 -6e-7,8.035443 z"
         transform="scale(-0.6)" />
    </marker>
    <marker
       inkscape:stockid="Arrow2Mend"
       orient="auto"
       refY="0"
       refX="0"
       id="Arrow2Mend-3-6"
       style="overflow:visible"
       inkscape:isstock="true">
      <path
         inkscape:connector-curvature="0"
         id="path4555-6-9"
         style="fill:#000000;fill-opacity:1;fill-rule:evenodd;stroke:#000000;stroke-width:0.625;stroke-linejoin:round;stroke-opacity:1"
         d="M 8.7185878,4.0337352 -2.2072895,0.01601326 8.7185884,-4.0017078 c -1.7454984,2.3720609 -1.7354408,5.6174519 -6e-7,8.035443 z"
         transform="scale(-0.6)" />
    </marker>
    <marker
       inkscape:stockid="Arrow2Mend"
       orient="auto"
       refY="0"
       refX="0"
       id="Arrow2Mend-3-1"
       style="overflow:visible"
       inkscape:isstock="true">
      <path
         inkscape:connector-curvature="0"
         id="path4555-6-5"
         style="fill:#000000;fill-opacity:1;fill-rule:evenodd;stroke:#000000;stroke-width:0.625;stroke-linejoin:round;stroke-opacity:1"
         d="M 8.7185878,4.0337352 -2.2072895,0.01601326 8.7185884,-4.0017078 c -1.7454984,2.3720609 -1.7354408,5.6174519 -6e-7,8.035443 z"
         transform="scale(-0.6)" />
    </marker>
    <marker
       inkscape:stockid="Arrow2Mend"
       orient="auto"
       refY="0"
       refX="0"
       id="Arrow2Mend-3-3"
       style="overflow:visible"
       inkscape:isstock="true">
      <path
         inkscape:connector-curvature="0"
         id="path4555-6-6"
         style="fill:#000000;fill-opacity:1;fill-rule:evenodd;stroke:#000000;stroke-width:0.625;stroke-linejoin:round;stroke-opacity:1"
         d="M 8.7185878,4.0337352 -2.2072895,0.01601326 8.7185884,-4.0017078 c -1.7454984,2.3720609 -1.7354408,5.6174519 -6e-7,8.035443 z"
         transform="scale(-0.6)" />
    </marker>
    <marker
       inkscape:stockid="Arrow2Mend"
       orient="auto"
       refY="0"
       refX="0"
       id="Arrow2Mend-3-64"
       style="overflow:visible"
       inkscape:isstock="true">
      <path
         inkscape:connector-curvature="0"
         id="path4555-6-1"
         style="fill:#000000;fill-opacity:1;fill-rule:evenodd;stroke:#000000;stroke-width:0.625;stroke-linejoin:round;stroke-opacity:1"
         d="M 8.7185878,4.0337352 -2.2072895,0.01601326 8.7185884,-4.0017078 c -1.7454984,2.3720609 -1.7354408,5.6174519 -6e-7,8.035443 z"
         transform="scale(-0.6)" />
    </marker>
    <marker
       inkscape:stockid="Arrow2Mend"
       orient="auto"
       refY="0"
       refX="0"
       id="Arrow2Mend-3-16"
       style="overflow:visible"
       inkscape:isstock="true">
      <path
         inkscape:connector-curvature="0"
         id="path4555-6-91"
         style="fill:#000000;fill-opacity:1;fill-rule:evenodd;stroke:#000000;stroke-width:0.625;stroke-linejoin:round;stroke-opacity:1"
         d="M 8.7185878,4.0337352 -2.2072895,0.01601326 8.7185884,-4.0017078 c -1.7454984,2.3720609 -1.7354408,5.6174519 -6e-7,8.035443 z"
         transform="scale(-0.6)" />
    </marker>
    <marker
       inkscape:stockid="Arrow2Mend"
       orient="auto"
       refY="0"
       refX="0"
       id="Arrow2Mend-3-4"
       style="overflow:visible"
       inkscape:isstock="true">
      <path
         inkscape:connector-curvature="0"
         id="path4555-6-2"
         style="fill:#000000;fill-opacity:1;fill-rule:evenodd;stroke:#000000;stroke-width:0.625;stroke-linejoin:round;stroke-opacity:1"
         d="M 8.7185878,4.0337352 -2.2072895,0.01601326 8.7185884,-4.0017078 c -1.7454984,2.3720609 -1.7354408,5.6174519 -6e-7,8.035443 z"
         transform="scale(-0.6)" />
    </marker>
    <marker
       inkscape:stockid="Arrow2Mend"
       orient="auto"
       refY="0"
       refX="0"
       id="Arrow2Mend-3-35"
       style="overflow:visible"
       inkscape:isstock="true">
      <path
         inkscape:connector-curvature="0"
         id="path4555-6-02"
         style="fill:#000000;fill-opacity:1;fill-rule:evenodd;stroke:#000000;stroke-width:0.625;stroke-linejoin:round;stroke-opacity:1"
         d="M 8.7185878,4.0337352 -2.2072895,0.01601326 8.7185884,-4.0017078 c -1.7454984,2.3720609 -1.7354408,5.6174519 -6e-7,8.035443 z"
         transform="scale(-0.6)" />
    </marker>
    <marker
       inkscape:stockid="Arrow2Mend"
       orient="auto"
       refY="0"
       refX="0"
       id="Arrow2Mend-3-9"
       style="overflow:visible"
       inkscape:isstock="true">
      <path
         inkscape:connector-curvature="0"
         id="path4555-6-56"
         style="fill:#000000;fill-opacity:1;fill-rule:evenodd;stroke:#000000;stroke-width:0.625;stroke-linejoin:round;stroke-opacity:1"
         d="M 8.7185878,4.0337352 -2.2072895,0.01601326 8.7185884,-4.0017078 c -1.7454984,2.3720609 -1.7354408,5.6174519 -6e-7,8.035443 z"
         transform="scale(-0.6)" />
    </marker>
    <marker
       inkscape:stockid="Arrow2Mend"
       orient="auto"
       refY="0"
       refX="0"
       id="Arrow2Mend-3-5"
       style="overflow:visible"
       inkscape:isstock="true">
      <path
         inkscape:connector-curvature="0"
         id="path4555-6-3"
         style="fill:#000000;fill-opacity:1;fill-rule:evenodd;stroke:#000000;stroke-width:0.625;stroke-linejoin:round;stroke-opacity:1"
         d="M 8.7185878,4.0337352 -2.2072895,0.01601326 8.7185884,-4.0017078 c -1.7454984,2.3720609 -1.7354408,5.6174519 -6e-7,8.035443 z"
         transform="scale(-0.6)" />
    </marker>
    <marker
       inkscape:stockid="Arrow2Mend"
       orient="auto"
       refY="0"
       refX="0"
       id="Arrow2Mend-3-359"
       style="overflow:visible"
       inkscape:isstock="true">
      <path
         inkscape:connector-curvature="0"
         id="path4555-6-918"
         style="fill:#000000;fill-opacity:1;fill-rule:evenodd;stroke:#000000;stroke-width:0.625;stroke-linejoin:round;stroke-opacity:1"
         d="M 8.7185878,4.0337352 -2.2072895,0.01601326 8.7185884,-4.0017078 c -1.7454984,2.3720609 -1.7354408,5.6174519 -6e-7,8.035443 z"
         transform="scale(-0.6)" />
    </marker>
    <marker
       inkscape:stockid="Arrow2Mend"
       orient="auto"
       refY="0"
       refX="0"
       id="Arrow2Mend-3-0"
       style="overflow:visible"
       inkscape:isstock="true">
      <path
         inkscape:connector-curvature="0"
         id="path4555-6-8"
         style="fill:#000000;fill-opacity:1;fill-rule:evenodd;stroke:#000000;stroke-width:0.625;stroke-linejoin:round;stroke-opacity:1"
         d="M 8.7185878,4.0337352 -2.2072895,0.01601326 8.7185884,-4.0017078 c -1.7454984,2.3720609 -1.7354408,5.6174519 -6e-7,8.035443 z"
         transform="scale(-0.6)" />
    </marker>
    <marker
       inkscape:stockid="Arrow2Mend"
       orient="auto"
       refY="0"
       refX="0"
       id="Arrow2Mend-3-99"
       style="overflow:visible"
       inkscape:isstock="true">
      <path
         inkscape:connector-curvature="0"
         id="path4555-6-4"
         style="fill:#000000;fill-opacity:1;fill-rule:evenodd;stroke:#000000;stroke-width:0.625;stroke-linejoin:round;stroke-opacity:1"
         d="M 8.7185878,4.0337352 -2.2072895,0.01601326 8.7185884,-4.0017078 c -1.7454984,2.3720609 -1.7354408,5.6174519 -6e-7,8.035443 z"
         transform="scale(-0.6)" />
    </marker>
  </defs>
  <sodipodi:namedview
     id="base"
     pagecolor="#ffffff"
     bordercolor="#666666"
     borderopacity="1.0"
     inkscape:pageopacity="0.0"
     inkscape:pageshadow="2"
     inkscape:zoom="1.4"
     inkscape:cx="454.35542"
     inkscape:cy="590.12144"
     inkscape:document-units="mm"
     inkscape:current-layer="layer1"
     showgrid="false"
     inkscape:window-width="2256"
     inkscape:window-height="1394"
     inkscape:window-x="-12"
     inkscape:window-y="-12"
     inkscape:window-maximized="1" />
  <metadata
     id="metadata5">
    <rdf:RDF>
      <cc:Work
         rdf:about="">
        <dc:format>image/svg+xml</dc:format>
        <dc:type
           rdf:resource="http://purl.org/dc/dcmitype/StillImage" />
        <dc:title></dc:title>
      </cc:Work>
    </rdf:RDF>
  </metadata>
  <g
     inkscape:label="Layer 1"
     inkscape:groupmode="layer"
     id="layer1">
    <circle
       style="fill:none;fill-opacity:1;stroke:#000000;stroke-width:0.41833445;stroke-linecap:butt;stroke-miterlimit:4;stroke-dasharray:none;stroke-dashoffset:2.6500001;stroke-opacity:1"
       id="path4518"
       cx="57.735859"
       cy="142.50223"
       r="19.667057" />
    <path
       id="path8946"
       style="fill:#000000;fill-opacity:1;stroke:#000000;stroke-width:0.30000001;stroke-linecap:butt;stroke-miterlimit:4;stroke-dasharray:none;stroke-dashoffset:10.01574802;stroke-opacity:1;marker-end:url(#Arrow2Mend-3)"
       d="m 58.177789,122.78639 a 0.37797621,0.37797621 0 0 1 -0.377977,0.37798 0.37797621,0.37797621 0 0 1 -0.377976,-0.37798 0.37797621,0.37797621 0 0 1 0.377976,-0.37798 0.37797621,0.37797621 0 0 1 0.377977,0.37798 z m -0.304667,0.0204 h 15.197467"
       inkscape:connector-curvature="0" />
    <path
       id="path8946-5"
       style="fill:#000000;fill-opacity:1;stroke:#000000;stroke-width:0.30000001;stroke-linecap:butt;stroke-miterlimit:4;stroke-dasharray:none;stroke-dashoffset:10.01574802;stroke-opacity:1;marker-end:url(#Arrow2Mend-3-7)"
       d="m 74.731189,132.5428 a 0.37797621,0.37797621 0 0 1 -0.511115,-0.15652 0.37797621,0.37797621 0 0 1 0.15652,-0.51111 0.37797621,0.37797621 0 0 1 0.511114,0.15651 0.37797621,0.37797621 0 0 1 -0.156519,0.51112 z m -0.160926,-0.2595 7.128685,13.42181"
       inkscape:connector-curvature="0"
       inkscape:transform-center-x="1.9268307"
       inkscape:transform-center-y="-2.9199174" />
    <path
       id="path8946-9"
       style="fill:#000000;fill-opacity:1;stroke:#000000;stroke-width:0.30000001;stroke-linecap:butt;stroke-miterlimit:4;stroke-dasharray:none;stroke-dashoffset:10.01574802;stroke-opacity:1;marker-end:url(#Arrow2Mend-3-6)"
       d="m 75.161521,151.67723 a 0.37797621,0.37797621 0 0 1 -0.158803,-0.51041 0.37797621,0.37797621 0 0 1 0.510411,-0.15879 0.37797621,0.37797621 0 0 1 0.158803,0.5104 0.37797621,0.37797621 0 0 1 -0.510411,0.1588 z m 0.123647,-0.2792 -7.068595,13.45356"
       inkscape:connector-curvature="0" />
    <path
       id="path8946-8"
       style="fill:#000000;fill-opacity:1;stroke:#000000;stroke-width:0.30000001;stroke-linecap:butt;stroke-miterlimit:4;stroke-dasharray:none;stroke-dashoffset:10.01574802;stroke-opacity:1;marker-end:url(#Arrow2Mend-3-1)"
       d="m 57.780333,162.19631 a 0.37797621,0.37797621 0 0 0 0.377977,0.37798 0.37797621,0.37797621 0 0 0 0.377976,-0.37798 0.37797621,0.37797621 0 0 0 -0.377976,-0.37798 0.37797621,0.37797621 0 0 0 -0.377977,0.37798 z m 0.304667,0.0204 H 42.887533"
       inkscape:connector-curvature="0" />
    <path
       id="path8946-88"
       style="fill:#000000;fill-opacity:1;stroke:#000000;stroke-width:0.30000001;stroke-linecap:butt;stroke-miterlimit:4;stroke-dasharray:none;stroke-dashoffset:10.01574802;stroke-opacity:1;marker-end:url(#Arrow2Mend-3-3)"
       d="m 41.18906,153.12341 a 0.37797621,0.37797621 0 0 1 0.522828,0.11128 0.37797621,0.37797621 0 0 1 -0.111305,0.52282 0.37797621,0.37797621 0 0 1 -0.522828,-0.11128 0.37797621,0.37797621 0 0 1 0.111305,-0.52283 z m 0.182966,0.24446 -8.27318,-12.74823"
       inkscape:connector-curvature="0" />
    <path
       id="path8946-99"
       style="fill:#000000;fill-opacity:1;stroke:#000000;stroke-width:0.30000001;stroke-linecap:butt;stroke-miterlimit:4;stroke-dasharray:none;stroke-dashoffset:10.01574802;stroke-opacity:1;marker-end:url(#Arrow2Mend-3-64)"
       d="m 41.074034,131.98592 a 0.37797621,0.37797621 0 0 1 0.139362,0.51606 0.37797621,0.37797621 0 0 1 -0.516057,0.13936 0.37797621,0.37797621 0 0 1 -0.139363,-0.51605 0.37797621,0.37797621 0 0 1 0.516058,-0.13937 z m -0.134131,0.27432 7.572968,-13.17623"
       inkscape:connector-curvature="0" />
    <path
       style="fill:none;stroke:#000000;stroke-width:0.26458332px;stroke-linecap:butt;stroke-linejoin:miter;stroke-opacity:1"
       d="m 109.78095,148.06405 c 1.39455,-13.46973 7.22567,-25.84816 22.11656,-30.26827 19.79572,-4.49998 36.91361,-3.85779 52.11755,2.40542 9.73848,4.01101 17.12468,11.27397 20.84703,23.78699 3.29534,16.19374 -2.71634,28.17297 -18.30796,35.81412 -6.40977,2.66389 -40.75401,-8.54163 -52.6521,-12.2944 -12.77895,-4.0306 -19.60517,2.02259 -22.58427,-6.5481 -2.48935,-6.91103 -2.11586,-8.50255 -1.53681,-12.89576 z"
       id="path11905"
       inkscape:connector-curvature="0"
       sodipodi:nodetypes="cccccscc" />
    <path
       style="fill:none;stroke:#000000;stroke-width:0.26458332px;stroke-linecap:butt;stroke-linejoin:miter;stroke-opacity:1"
       d="m 157.55538,141.7164 c -4.89121,-9.78596 -9.81225,-13.15496 -16.03617,-13.22984 -6.96416,0.13757 -12.41181,7.59769 -12.16076,13.22984 0.50718,6.5515 3.54903,12.03683 12.96257,12.02713 7.15884,0.0113 10.61521,-5.44283 15.23436,-12.02713 z"
       id="path11907"
       inkscape:connector-curvature="0"
       sodipodi:nodetypes="ccccc" />
    <path
       style="fill:none;stroke:#000000;stroke-width:0.26458332px;stroke-linecap:butt;stroke-linejoin:miter;stroke-opacity:1"
       d="m 157.55538,141.7164 c 4.37546,-6.86655 11.07404,-10.19855 20.31249,-10.42351 8.29162,-0.11294 14.36073,6.82382 17.23888,14.96709 3.10489,10.72972 -12.11093,17.64804 -22.57756,15.19638 -9.76511,-3.06961 -10.29251,-10.05753 -14.97381,-19.73996"
       id="path11909"
       inkscape:connector-curvature="0"
       sodipodi:nodetypes="ccccc" />
    <path
       id="path8946-87"
       style="fill:#000000;fill-opacity:1;stroke:#000000;stroke-width:0.30000001;stroke-linecap:butt;stroke-miterlimit:4;stroke-dasharray:none;stroke-dashoffset:10.01574802;stroke-opacity:1;marker-end:url(#Arrow2Mend-3-16)"
       d="m 144.82752,128.84595 a 0.37797621,0.37797621 0 0 0 0.27539,0.45814 0.37797621,0.37797621 0 0 0 0.45814,-0.27539 0.37797621,0.37797621 0 0 0 -0.27538,-0.45814 0.37797621,0.37797621 0 0 0 -0.45815,0.27539 z m 0.29071,0.0935 -14.74667,-3.6741"
       inkscape:connector-curvature="0" />
    <path
       id="path8946-6"
       style="fill:#000000;fill-opacity:1;stroke:#000000;stroke-width:0.30000001;stroke-linecap:butt;stroke-miterlimit:4;stroke-dasharray:none;stroke-dashoffset:10.01574802;stroke-opacity:1;marker-end:url(#Arrow2Mend-3-4)"
       d="m 139.19535,153.542 a 0.37797621,0.37797621 0 0 1 -0.41119,0.34155 0.37797621,0.37797621 0 0 1 -0.34154,-0.41119 0.37797621,0.37797621 0 0 1 0.41118,-0.34155 0.37797621,0.37797621 0 0 1 0.34155,0.41119 z m -0.30525,-0.008 15.13285,1.39998"
       inkscape:connector-curvature="0" />
    <path
       id="path8946-3"
       style="fill:#000000;fill-opacity:1;stroke:#000000;stroke-width:0.30000001;stroke-linecap:butt;stroke-miterlimit:4;stroke-dasharray:none;stroke-dashoffset:10.01574802;stroke-opacity:1;marker-end:url(#Arrow2Mend-3-35)"
       d="m 129.38451,141.62913 a 0.37797621,0.37797621 0 0 1 -0.40326,-0.35089 0.37797621,0.37797621 0 0 1 0.35089,-0.40326 0.37797621,0.37797621 0 0 1 0.40325,0.35089 0.37797621,0.37797621 0 0 1 -0.35088,0.40326 z m -0.0415,-0.30253 1.05288,15.16096"
       inkscape:connector-curvature="0" />
    <path
       id="path8946-31"
       style="fill:#000000;fill-opacity:1;stroke:#000000;stroke-width:0.30000001;stroke-linecap:butt;stroke-miterlimit:4;stroke-dasharray:none;stroke-dashoffset:10.01574802;stroke-opacity:1;marker-end:url(#Arrow2Mend-3-9)"
       d="m 182.50069,131.96905 a 0.37797621,0.37797621 0 0 1 -0.48018,0.23487 0.37797621,0.37797621 0 0 1 -0.23487,-0.48018 0.37797621,0.37797621 0 0 1 0.48018,-0.23487 0.37797621,0.37797621 0 0 1 0.23487,0.48018 z m -0.2948,-0.0796 14.37505,4.93161"
       inkscape:connector-curvature="0" />
    <path
       id="path8946-68"
       style="fill:#000000;fill-opacity:1;stroke:#000000;stroke-width:0.30000001;stroke-linecap:butt;stroke-miterlimit:4;stroke-dasharray:none;stroke-dashoffset:10.01574802;stroke-opacity:1;marker-end:url(#Arrow2Mend-3-5)"
       d="m 195.1561,151.60329 a 0.37797621,0.37797621 0 0 1 -0.28498,-0.45225 0.37797621,0.37797621 0 0 1 0.45224,-0.28497 0.37797621,0.37797621 0 0 1 0.28498,0.45224 0.37797621,0.37797621 0 0 1 -0.45224,0.28498 z m 0.0475,-0.30163 -3.36258,14.82079"
       inkscape:connector-curvature="0" />
    <path
       id="path8946-0"
       style="fill:#000000;fill-opacity:1;stroke:#000000;stroke-width:0.30000001;stroke-linecap:butt;stroke-miterlimit:4;stroke-dasharray:none;stroke-dashoffset:10.01574802;stroke-opacity:1;marker-end:url(#Arrow2Mend-3-359)"
       d="m 176.49931,162.00523 a 0.37797621,0.37797621 0 0 1 0.40166,-0.3527 0.37797621,0.37797621 0 0 1 0.3527,0.40167 0.37797621,0.37797621 0 0 1 -0.40167,0.35271 0.37797621,0.37797621 0 0 1 -0.35269,-0.40168 z m 0.30533,-6.7e-4 -15.16553,-0.98454"
       inkscape:connector-curvature="0" />
    <path
       id="path8946-04"
       style="fill:#000000;fill-opacity:1;stroke:#000000;stroke-width:0.30000001;stroke-linecap:butt;stroke-miterlimit:4;stroke-dasharray:none;stroke-dashoffset:10.01574802;stroke-opacity:1;marker-end:url(#Arrow2Mend-3-0)"
       d="m 157.71539,141.45634 a 0.37797621,0.37797621 0 0 1 0.0888,0.52711 0.37797621,0.37797621 0 0 1 -0.52711,0.0888 0.37797621,0.37797621 0 0 1 -0.0888,-0.52711 0.37797621,0.37797621 0 0 1 0.5271,-0.0888 z m -0.16001,0.26006 8.81093,-12.38266"
       inkscape:connector-curvature="0" />
    <path
       id="path8946-2"
       style="fill:#000000;fill-opacity:1;stroke:#000000;stroke-width:0.30000001;stroke-linecap:butt;stroke-miterlimit:4;stroke-dasharray:none;stroke-dashoffset:0;stroke-opacity:1;marker-end:url(#Arrow2Mend-3-99)"
       d="m 157.39963,141.45376 a 0.37797621,0.37797621 0 0 1 0.50791,0.16662 0.37797621,0.37797621 0 0 1 -0.16662,0.50791 0.37797621,0.37797621 0 0 1 -0.50791,-0.16662 0.37797621,0.37797621 0 0 1 0.16662,-0.50791 z m 0.15575,0.26264 -6.86123,-13.56048"
       inkscape:connector-curvature="0" />
    <circle
       style="fill:#000000;fill-opacity:1;stroke:#000000;stroke-width:0.19163045;stroke-linecap:butt;stroke-miterlimit:4;stroke-dasharray:none;stroke-dashoffset:0;stroke-opacity:1"
       id="path16488"
       cx="143.25352"
       cy="164.64815"
       r="0.40546772" />
    <path
       style="fill:none;stroke:#000000;stroke-width:0.26458332px;stroke-linecap:butt;stroke-linejoin:miter;stroke-opacity:1;marker-end:url(#Arrow1Mend)"
       d="m 85.793518,136.50465 c 7.30767,-3.47297 13.71139,-2.55532 19.777942,0"
       id="path16490"
       inkscape:connector-curvature="0"
       sodipodi:nodetypes="cc" />
    <g
       id="g16873"
       transform="matrix(0.5,0,0,0.5,65.545053,91.825321)"
       ns1:text="$A$">
      <g
         id="g16871">
        <g
           id="g16869"
           style="fill:#000000;fill-opacity:1">
          <path
             id="path16867"
             transform="translate(178.584,110.991)"
             d="M 1.78125,-1.140625 C 1.390625,-0.484375 1,-0.34375 0.5625,-0.3125 0.4375,-0.296875 0.34375,-0.296875 0.34375,-0.109375 0.34375,-0.046875 0.40625,0 0.484375,0 0.75,0 1.0625,-0.03125 1.328125,-0.03125 c 0.34375,0 0.6875,0.03125 1,0.03125 0.0625,0 0.1875,0 0.1875,-0.1875 0,-0.109375 -0.078125,-0.125 -0.15625,-0.125 -0.21875,-0.015625 -0.46875,-0.09375 -0.46875,-0.34375 0,-0.125 0.0625,-0.234375 0.140625,-0.375 l 0.765625,-1.265625 h 2.5 c 0.015625,0.203125 0.15625,1.5625 0.15625,1.65625 0,0.296875 -0.515625,0.328125 -0.71875,0.328125 C 4.59375,-0.3125 4.5,-0.3125 4.5,-0.109375 4.5,0 4.609375,0 4.640625,0 5.046875,0 5.46875,-0.03125 5.875,-0.03125 6.125,-0.03125 6.765625,0 7.015625,0 7.0625,0 7.1875,0 7.1875,-0.203125 7.1875,-0.3125 7.09375,-0.3125 6.953125,-0.3125 6.34375,-0.3125 6.34375,-0.375 6.3125,-0.671875 l -0.609375,-6.21875 c -0.015625,-0.203125 -0.015625,-0.25 -0.1875,-0.25 -0.15625,0 -0.203125,0.078125 -0.265625,0.171875 z M 2.984375,-2.609375 4.9375,-5.90625 5.265625,-2.609375 Z m 0,0"
             style="stroke:none"
             inkscape:connector-curvature="0" />
        </g>
      </g>
    </g>
    <g
       id="g16952"
       transform="matrix(0.5,0,0,0.5,55.090401,112.53306)"
       ns1:text="$B$">
      <g
         id="g16950">
        <g
           id="g16948"
           style="fill:#000000;fill-opacity:1">
          <path
             id="path16946"
             transform="translate(178.584,110.991)"
             d="M 1.59375,-0.78125 C 1.5,-0.390625 1.46875,-0.3125 0.6875,-0.3125 c -0.171875,0 -0.265625,0 -0.265625,0.203125 C 0.421875,0 0.515625,0 0.6875,0 H 4.25 C 5.828125,0 7,-1.171875 7,-2.15625 7,-2.875 6.421875,-3.453125 5.453125,-3.5625 6.484375,-3.75 7.53125,-4.484375 7.53125,-5.4375 c 0,-0.734375 -0.65625,-1.375 -1.84375,-1.375 H 2.328125 c -0.1875,0 -0.28125,0 -0.28125,0.203125 0,0.109375 0.09375,0.109375 0.28125,0.109375 0.015625,0 0.203125,0 0.375,0.015625 0.171875,0.03125 0.265625,0.03125 0.265625,0.171875 0,0.03125 -0.015625,0.0625 -0.03125,0.1875 z m 1.5,-2.875 0.625,-2.46875 C 3.8125,-6.46875 3.828125,-6.5 4.25,-6.5 h 1.296875 c 0.875,0 1.078125,0.59375 1.078125,1.03125 0,0.875 -0.859375,1.8125 -2.0625,1.8125 z m -0.4375,3.34375 c -0.140625,0 -0.15625,0 -0.21875,0 -0.109375,-0.015625 -0.140625,-0.03125 -0.140625,-0.109375 0,-0.03125 0,-0.046875 0.0625,-0.21875 l 0.6875,-2.78125 h 1.875 c 0.953125,0 1.15625,0.734375 1.15625,1.15625 C 6.078125,-1.28125 5.1875,-0.3125 4,-0.3125 Z m 0,0"
             style="stroke:none"
             inkscape:connector-curvature="0" />
        </g>
      </g>
    </g>
    <g
       id="g17121"
       transform="matrix(0.5,0,0,0.5,97.136799,128.56455)"
       ns1:text="$M$">
      <g
         id="g17119">
        <g
           id="g17117"
           style="fill:#000000;fill-opacity:1">
          <path
             id="path17115"
             transform="translate(178.584,110.991)"
             d="M 9.234375,-6.046875 C 9.328125,-6.40625 9.34375,-6.5 10.09375,-6.5 c 0.21875,0 0.3125,0 0.3125,-0.203125 0,-0.109375 -0.09375,-0.109375 -0.265625,-0.109375 h -1.3125 c -0.265625,0 -0.28125,0 -0.390625,0.1875 L 4.796875,-0.9375 4.015625,-6.578125 C 3.984375,-6.8125 3.96875,-6.8125 3.703125,-6.8125 H 2.34375 c -0.1875,0 -0.296875,0 -0.296875,0.1875 0,0.125 0.09375,0.125 0.28125,0.125 0.140625,0 0.3125,0.015625 0.4375,0.015625 0.15625,0.03125 0.21875,0.046875 0.21875,0.171875 0,0.03125 -0.015625,0.0625 -0.046875,0.1875 l -1.265625,5.0625 c -0.09375,0.40625 -0.265625,0.71875 -1.078125,0.75 -0.046875,0 -0.171875,0.015625 -0.171875,0.1875 0,0.09375 0.0625,0.125 0.140625,0.125 0.3125,0 0.65625,-0.03125 1,-0.03125 C 1.890625,-0.03125 2.25,0 2.578125,0 c 0.046875,0 0.1875,0 0.1875,-0.203125 0,-0.109375 -0.109375,-0.109375 -0.1875,-0.109375 -0.5625,0 -0.671875,-0.203125 -0.671875,-0.4375 0,-0.0625 0,-0.125 0.03125,-0.234375 L 3.296875,-6.40625 H 3.3125 l 0.859375,6.171875 C 4.1875,-0.109375 4.203125,0 4.3125,0 4.421875,0 4.484375,-0.109375 4.53125,-0.171875 l 4.03125,-6.3125 h 0.015625 l -1.4375,5.703125 c -0.09375,0.390625 -0.109375,0.46875 -0.90625,0.46875 -0.15625,0 -0.265625,0 -0.265625,0.1875 C 5.96875,0 6.078125,0 6.109375,0 6.390625,0 7.0625,-0.03125 7.34375,-0.03125 7.75,-0.03125 8.1875,0 8.59375,0 8.65625,0 8.78125,0 8.78125,-0.203125 8.78125,-0.3125 8.6875,-0.3125 8.5,-0.3125 c -0.359375,0 -0.640625,0 -0.640625,-0.171875 0,-0.046875 0,-0.0625 0.046875,-0.25 z m 0,0"
             style="stroke:none"
             inkscape:connector-curvature="0" />
        </g>
      </g>
    </g>
    <g
       id="g17212"
       transform="matrix(0.5,0,0,0.5,-56.207866,114.09438)"
       ns1:text="$\\mathbb{R}^n$">
      <g
         id="g17210">
        <g
           id="g17204"
           style="fill:#000000;fill-opacity:1">
          <path
             id="path17202"
             transform="translate(178.584,110.991)"
             d="M 2.671875,-3.125 H 3.03125 l 1.5,2.3125 C 4.625,-0.65625 4.859375,-0.265625 4.96875,-0.125 5.046875,0 5.078125,0 5.296875,0 h 1.375 c 0.1875,0 0.34375,0 0.34375,-0.171875 0,-0.09375 -0.0625,-0.15625 -0.15625,-0.171875 C 6.484375,-0.421875 6,-1.09375 5.765625,-1.40625 5.6875,-1.5 5.1875,-2.15625 4.53125,-3.234375 5.40625,-3.40625 6.265625,-3.78125 6.265625,-4.96875 6.265625,-6.34375 4.8125,-6.828125 3.625,-6.828125 H 0.5 c -0.1875,0 -0.34375,0 -0.34375,0.171875 0,0.171875 0.1875,0.171875 0.265625,0.171875 0.578125,0 0.625,0.078125 0.625,0.578125 v 4.984375 c 0,0.5 -0.046875,0.578125 -0.625,0.578125 -0.078125,0 -0.265625,0 -0.265625,0.171875 C 0.15625,0 0.3125,0 0.5,0 H 3.234375 C 3.40625,0 3.5625,0 3.5625,-0.171875 c 0,-0.171875 -0.171875,-0.171875 -0.28125,-0.171875 -0.5625,0 -0.609375,-0.078125 -0.609375,-0.578125 z m 1.921875,-0.5 c 0.28125,-0.359375 0.3125,-0.890625 0.3125,-1.328125 0,-0.484375 -0.0625,-1.015625 -0.375,-1.421875 0.40625,0.09375 1.390625,0.40625 1.390625,1.40625 0,0.65625 -0.296875,1.15625 -1.328125,1.34375 z M 2.671875,-5.9375 c 0,-0.21875 0,-0.546875 0.625,-0.546875 0.84375,0 1.265625,0.359375 1.265625,1.53125 0,1.28125 -0.3125,1.46875 -1.890625,1.46875 z M 1.3125,-0.34375 C 1.390625,-0.53125 1.390625,-0.8125 1.390625,-0.890625 V -5.9375 c 0,-0.09375 0,-0.359375 -0.078125,-0.546875 h 1.140625 c -0.125,0.171875 -0.125,0.359375 -0.125,0.515625 v 5.078125 c 0,0.09375 0,0.359375 0.078125,0.546875 z M 3.4375,-3.125 c 0.078125,-0.015625 0.109375,-0.03125 0.1875,-0.03125 0.15625,0 0.375,-0.015625 0.515625,-0.03125 0.15625,0.234375 1.234375,2.015625 2.0625,2.84375 h -0.96875 z m 0,0"
             style="stroke:none"
             inkscape:connector-curvature="0" />
        </g>
        <g
           id="g17208"
           style="fill:#000000;fill-opacity:1">
          <path
             id="path17206"
             transform="translate(185.78,107.375)"
             d="m 0.84375,-0.4375 c -0.015625,0.09375 -0.0625,0.265625 -0.0625,0.28125 0,0.15625 0.125,0.21875 0.234375,0.21875 0.125,0 0.234375,-0.078125 0.28125,-0.140625 0.03125,-0.0625 0.078125,-0.296875 0.125,-0.4375 0.03125,-0.125 0.109375,-0.453125 0.140625,-0.625 0.046875,-0.15625 0.09375,-0.3125 0.125,-0.46875 0.078125,-0.28125 0.09375,-0.34375 0.296875,-0.625 C 2.171875,-2.515625 2.5,-2.875 3.03125,-2.875 c 0.390625,0 0.40625,0.359375 0.40625,0.484375 0,0.421875 -0.296875,1.1875 -0.40625,1.484375 -0.078125,0.203125 -0.109375,0.265625 -0.109375,0.375 0,0.375 0.296875,0.59375 0.65625,0.59375 0.703125,0 1,-0.953125 1,-1.0625 0,-0.09375 -0.078125,-0.09375 -0.109375,-0.09375 -0.09375,0 -0.09375,0.046875 -0.125,0.125 C 4.1875,-0.40625 3.875,-0.125 3.609375,-0.125 c -0.15625,0 -0.1875,-0.09375 -0.1875,-0.25 0,-0.15625 0.046875,-0.25 0.171875,-0.5625 0.078125,-0.21875 0.359375,-0.953125 0.359375,-1.34375 0,-0.671875 -0.53125,-0.796875 -0.90625,-0.796875 -0.578125,0 -0.96875,0.359375 -1.171875,0.640625 -0.046875,-0.484375 -0.453125,-0.640625 -0.75,-0.640625 -0.296875,0 -0.453125,0.21875 -0.546875,0.375 -0.15625,0.265625 -0.25,0.65625 -0.25,0.703125 0,0.078125 0.09375,0.078125 0.125,0.078125 0.09375,0 0.09375,-0.015625 0.140625,-0.203125 0.109375,-0.40625 0.25,-0.75 0.515625,-0.75 0.1875,0 0.234375,0.15625 0.234375,0.34375 0,0.125 -0.0625,0.390625 -0.125,0.578125 -0.046875,0.1875 -0.109375,0.46875 -0.140625,0.625 z m 0,0"
             style="stroke:none"
             inkscape:connector-curvature="0" />
        </g>
      </g>
    </g>
    <g
       id="g17302"
       transform="matrix(0.5,0,0,0.5,4.6535267,75.918797)"
       ns1:text="$\\phi$">
      <g
         id="surface1">
        <g
           id="g17299"
           style="fill:#000000;fill-opacity:1">
          <path
             id="path17297"
             transform="translate(178.584,110.991)"
             d="m 4.359375,-6.671875 c 0,-0.03125 0.03125,-0.140625 0.03125,-0.140625 0,-0.015625 0,-0.109375 -0.125,-0.109375 -0.09375,0 -0.109375,0.03125 -0.15625,0.203125 L 3.53125,-4.421875 c -1.578125,0.0625 -3.046875,1.375 -3.046875,2.734375 0,0.953125 0.703125,1.734375 1.921875,1.8125 C 2.328125,0.421875 2.25,0.75 2.171875,1.0625 c -0.125,0.46875 -0.21875,0.84375 -0.21875,0.875 0,0.09375 0.078125,0.109375 0.125,0.109375 C 2.125,2.046875 2.140625,2.03125 2.171875,2 2.1875,1.984375 2.25,1.75 2.28125,1.609375 L 2.65625,0.125 c 1.609375,-0.0625 3.0625,-1.40625 3.0625,-2.734375 0,-0.796875 -0.53125,-1.703125 -1.921875,-1.8125 z m -1.90625,6.578125 c -0.59375,-0.03125 -1.3125,-0.390625 -1.3125,-1.375 0,-1.203125 0.859375,-2.59375 2.34375,-2.734375 z m 1.28125,-4.109375 c 0.765625,0.046875 1.328125,0.5 1.328125,1.375 0,1.1875 -0.859375,2.609375 -2.34375,2.734375 z m 0,0"
             style="stroke:none"
             inkscape:connector-curvature="0" />
        </g>
      </g>
    </g>
  </g>
</svg>
